<mxfile modified="2020-03-15T10:22:35.354Z" host="app.diagrams.net" agent="Mozilla/5.0 (Macintosh; Intel Mac OS X 10_15_3) AppleWebKit/537.36 (KHTML, like Gecko) Chrome/80.0.3987.132 Safari/537.36" etag="VGQ1U2Fxrq4jU8y76Xvx" version="12.8.5" type="github" pages="3">
  <diagram id="Ht1M8jgEwFfnCIfOTk4-" name="Page-1">
    <mxGraphModel dx="2115" dy="1473" grid="1" gridSize="10" guides="1" tooltips="1" connect="1" arrows="1" fold="1" page="1" pageScale="1" pageWidth="1169" pageHeight="827" math="0" shadow="0">
      <root>
        <mxCell id="0" />
        <mxCell id="1" parent="0" />
        <mxCell id="UEzPUAAOIrF-is8g5C7q-74" value="&lt;font style=&quot;font-size: 15px&quot;&gt;AWS Cloud&lt;/font&gt;" style="points=[[0,0],[0.25,0],[0.5,0],[0.75,0],[1,0],[1,0.25],[1,0.5],[1,0.75],[1,1],[0.75,1],[0.5,1],[0.25,1],[0,1],[0,0.75],[0,0.5],[0,0.25]];outlineConnect=0;gradientColor=none;html=1;whiteSpace=wrap;fontSize=12;fontStyle=0;shape=mxgraph.aws4.group;grIcon=mxgraph.aws4.group_aws_cloud_alt;strokeColor=#232F3E;fillColor=none;verticalAlign=top;align=left;spacingLeft=30;fontColor=#232F3E;dashed=0;labelBackgroundColor=#ffffff;" parent="1" vertex="1">
          <mxGeometry x="-20" y="80" width="1140" height="760" as="geometry" />
        </mxCell>
        <mxCell id="TSYXAIwE5Utrez5BGwK_-2" value="&lt;font style=&quot;font-size: 15px&quot;&gt;Region(ap-northeast-1)&lt;/font&gt;" style="points=[[0,0],[0.25,0],[0.5,0],[0.75,0],[1,0],[1,0.25],[1,0.5],[1,0.75],[1,1],[0.75,1],[0.5,1],[0.25,1],[0,1],[0,0.75],[0,0.5],[0,0.25]];outlineConnect=0;gradientColor=none;html=1;whiteSpace=wrap;fontSize=12;fontStyle=0;shape=mxgraph.aws4.group;grIcon=mxgraph.aws4.group_region;strokeColor=#147EBA;fillColor=none;verticalAlign=top;align=left;spacingLeft=30;fontColor=#147EBA;dashed=0;" parent="1" vertex="1">
          <mxGeometry x="20" y="120" width="1060" height="690" as="geometry" />
        </mxCell>
        <mxCell id="TSYXAIwE5Utrez5BGwK_-6" value="&lt;font style=&quot;font-size: 15px&quot;&gt;VPC(10.0.0.0/16)&lt;/font&gt;" style="points=[[0,0],[0.25,0],[0.5,0],[0.75,0],[1,0],[1,0.25],[1,0.5],[1,0.75],[1,1],[0.75,1],[0.5,1],[0.25,1],[0,1],[0,0.75],[0,0.5],[0,0.25]];outlineConnect=0;gradientColor=none;html=1;whiteSpace=wrap;fontSize=12;fontStyle=0;shape=mxgraph.aws4.group;grIcon=mxgraph.aws4.group_vpc;strokeColor=#248814;fillColor=none;verticalAlign=top;align=left;spacingLeft=30;fontColor=#AAB7B8;dashed=0;" parent="1" vertex="1">
          <mxGeometry x="60" y="158" width="960" height="622" as="geometry" />
        </mxCell>
        <mxCell id="TSYXAIwE5Utrez5BGwK_-7" value="&lt;font style=&quot;font-size: 15px&quot;&gt;Availability zone(1a)&lt;/font&gt;" style="outlineConnect=0;gradientColor=none;html=1;whiteSpace=wrap;fontSize=12;fontStyle=0;shape=mxgraph.aws4.group;grIcon=mxgraph.aws4.group_availability_zone;strokeColor=#545B64;fillColor=none;verticalAlign=top;align=left;spacingLeft=30;fontColor=#545B64;dashed=1;" parent="1" vertex="1">
          <mxGeometry x="112" y="190" width="350" height="570" as="geometry" />
        </mxCell>
        <mxCell id="TSYXAIwE5Utrez5BGwK_-8" value="&lt;font style=&quot;font-size: 15px&quot;&gt;Availability zone(1c)&lt;/font&gt;" style="outlineConnect=0;gradientColor=none;html=1;whiteSpace=wrap;fontSize=12;fontStyle=0;shape=mxgraph.aws4.group;grIcon=mxgraph.aws4.group_availability_zone;strokeColor=#545B64;fillColor=none;verticalAlign=top;align=left;spacingLeft=30;fontColor=#545B64;dashed=1;" parent="1" vertex="1">
          <mxGeometry x="592" y="190" width="353" height="570" as="geometry" />
        </mxCell>
        <mxCell id="TSYXAIwE5Utrez5BGwK_-9" value="&lt;font style=&quot;font-size: 15px&quot;&gt;Public subnet(10.0.0.0/24)&lt;/font&gt;" style="points=[[0,0],[0.25,0],[0.5,0],[0.75,0],[1,0],[1,0.25],[1,0.5],[1,0.75],[1,1],[0.75,1],[0.5,1],[0.25,1],[0,1],[0,0.75],[0,0.5],[0,0.25]];outlineConnect=0;gradientColor=none;html=1;whiteSpace=wrap;fontSize=12;fontStyle=0;shape=mxgraph.aws4.group;grIcon=mxgraph.aws4.group_security_group;grStroke=0;strokeColor=#248814;fillColor=#E9F3E6;verticalAlign=top;align=left;spacingLeft=30;fontColor=#248814;dashed=0;" parent="1" vertex="1">
          <mxGeometry x="127" y="240" width="320" height="240" as="geometry" />
        </mxCell>
        <mxCell id="TSYXAIwE5Utrez5BGwK_-14" value="&lt;font style=&quot;font-size: 15px&quot;&gt;EC2&lt;/font&gt;" style="outlineConnect=0;fontColor=#232F3E;gradientColor=none;strokeColor=#ffffff;fillColor=#232F3E;dashed=0;verticalLabelPosition=middle;verticalAlign=bottom;align=center;html=1;whiteSpace=wrap;fontSize=10;fontStyle=1;spacing=3;shape=mxgraph.aws4.productIcon;prIcon=mxgraph.aws4.ec2;" parent="1" vertex="1">
          <mxGeometry x="240" y="330" width="80" height="100" as="geometry" />
        </mxCell>
        <mxCell id="TSYXAIwE5Utrez5BGwK_-15" value="" style="rounded=1;arcSize=10;dashed=1;strokeColor=#ff0000;fillColor=none;gradientColor=none;dashPattern=8 4;strokeWidth=2;" parent="1" vertex="1">
          <mxGeometry x="150" y="270" width="752" height="200" as="geometry" />
        </mxCell>
        <mxCell id="TSYXAIwE5Utrez5BGwK_-17" value="&lt;span style=&quot;font-size: 15px&quot;&gt;&lt;font color=&quot;#ff0000&quot;&gt;Security Group(SSH/HTTP)&lt;/font&gt;&lt;/span&gt;" style="text;html=1;strokeColor=none;fillColor=none;align=center;verticalAlign=middle;whiteSpace=wrap;rounded=0;" parent="1" vertex="1">
          <mxGeometry x="155" y="280" width="200" height="20" as="geometry" />
        </mxCell>
        <mxCell id="TSYXAIwE5Utrez5BGwK_-19" value="&lt;font style=&quot;font-size: 15px&quot;&gt;Private subnet(10.0.1.0/24)&lt;/font&gt;" style="points=[[0,0],[0.25,0],[0.5,0],[0.75,0],[1,0],[1,0.25],[1,0.5],[1,0.75],[1,1],[0.75,1],[0.5,1],[0.25,1],[0,1],[0,0.75],[0,0.5],[0,0.25]];outlineConnect=0;gradientColor=none;html=1;whiteSpace=wrap;fontSize=12;fontStyle=0;shape=mxgraph.aws4.group;grIcon=mxgraph.aws4.group_security_group;grStroke=0;strokeColor=#147EBA;fillColor=#E6F2F8;verticalAlign=top;align=left;spacingLeft=30;fontColor=#147EBA;dashed=0;" parent="1" vertex="1">
          <mxGeometry x="127" y="500" width="320" height="240" as="geometry" />
        </mxCell>
        <mxCell id="TSYXAIwE5Utrez5BGwK_-20" value="&lt;font style=&quot;font-size: 15px&quot;&gt;Private subnet(10.0.2.0/24)&lt;/font&gt;" style="points=[[0,0],[0.25,0],[0.5,0],[0.75,0],[1,0],[1,0.25],[1,0.5],[1,0.75],[1,1],[0.75,1],[0.5,1],[0.25,1],[0,1],[0,0.75],[0,0.5],[0,0.25]];outlineConnect=0;gradientColor=none;html=1;whiteSpace=wrap;fontSize=12;fontStyle=0;shape=mxgraph.aws4.group;grIcon=mxgraph.aws4.group_security_group;grStroke=0;strokeColor=#147EBA;fillColor=#E6F2F8;verticalAlign=top;align=left;spacingLeft=30;fontColor=#147EBA;dashed=0;" parent="1" vertex="1">
          <mxGeometry x="612" y="500" width="320" height="240" as="geometry" />
        </mxCell>
        <mxCell id="TSYXAIwE5Utrez5BGwK_-21" value="" style="rounded=1;arcSize=10;dashed=1;strokeColor=#ff0000;fillColor=none;gradientColor=none;dashPattern=8 4;strokeWidth=2;" parent="1" vertex="1">
          <mxGeometry x="142" y="530" width="760" height="200" as="geometry" />
        </mxCell>
        <mxCell id="TSYXAIwE5Utrez5BGwK_-22" value="&lt;span style=&quot;font-size: 15px&quot;&gt;&lt;font color=&quot;#ff0000&quot;&gt;Security Group(MYSQL/Aurora)&lt;/font&gt;&lt;/span&gt;" style="text;html=1;strokeColor=none;fillColor=none;align=center;verticalAlign=middle;whiteSpace=wrap;rounded=0;" parent="1" vertex="1">
          <mxGeometry x="155" y="540" width="230" height="20" as="geometry" />
        </mxCell>
        <mxCell id="TSYXAIwE5Utrez5BGwK_-23" value="" style="outlineConnect=0;fontColor=#232F3E;gradientColor=#4D72F3;gradientDirection=north;fillColor=#3334B9;strokeColor=#ffffff;dashed=0;verticalLabelPosition=bottom;verticalAlign=top;align=center;html=1;fontSize=12;fontStyle=0;aspect=fixed;shape=mxgraph.aws4.resourceIcon;resIcon=mxgraph.aws4.rds;" parent="1" vertex="1">
          <mxGeometry x="242" y="600" width="78" height="78" as="geometry" />
        </mxCell>
        <mxCell id="TSYXAIwE5Utrez5BGwK_-24" value="&lt;font style=&quot;font-size: 15px&quot;&gt;RDS(MySQL)&lt;br&gt;&lt;/font&gt;" style="text;html=1;strokeColor=none;fillColor=none;align=center;verticalAlign=middle;whiteSpace=wrap;rounded=0;" parent="1" vertex="1">
          <mxGeometry x="236" y="670" width="90" height="40" as="geometry" />
        </mxCell>
        <mxCell id="TSYXAIwE5Utrez5BGwK_-35" value="&lt;font style=&quot;font-size: 15px&quot;&gt;Internet&lt;/font&gt;" style="outlineConnect=0;fontColor=#232F3E;gradientColor=none;strokeColor=#232F3E;fillColor=#ffffff;dashed=0;verticalLabelPosition=bottom;verticalAlign=top;align=center;html=1;fontSize=12;fontStyle=0;aspect=fixed;shape=mxgraph.aws4.resourceIcon;resIcon=mxgraph.aws4.internet;" parent="1" vertex="1">
          <mxGeometry x="492" y="-20" width="60" height="60" as="geometry" />
        </mxCell>
        <mxCell id="TSYXAIwE5Utrez5BGwK_-37" value="" style="outlineConnect=0;fontColor=#232F3E;gradientColor=none;fillColor=#5A30B5;strokeColor=none;dashed=0;verticalLabelPosition=bottom;verticalAlign=top;align=center;html=1;fontSize=12;fontStyle=0;aspect=fixed;pointerEvents=1;shape=mxgraph.aws4.internet_gateway;" parent="1" vertex="1">
          <mxGeometry x="483" y="123" width="78" height="78" as="geometry" />
        </mxCell>
        <mxCell id="vBj10myBFWqMgLxk0U1Q-3" value="" style="outlineConnect=0;fontColor=#232F3E;gradientColor=none;fillColor=#5A30B5;strokeColor=none;dashed=0;verticalLabelPosition=bottom;verticalAlign=top;align=center;html=1;fontSize=12;fontStyle=0;aspect=fixed;pointerEvents=1;shape=mxgraph.aws4.route_table;" parent="1" vertex="1">
          <mxGeometry x="483" y="322" width="78" height="76" as="geometry" />
        </mxCell>
        <mxCell id="vBj10myBFWqMgLxk0U1Q-4" value="&lt;font style=&quot;font-size: 15px&quot;&gt;Route Table&lt;br&gt;&lt;/font&gt;" style="text;html=1;strokeColor=none;fillColor=none;align=center;verticalAlign=middle;whiteSpace=wrap;rounded=0;" parent="1" vertex="1">
          <mxGeometry x="477" y="390" width="90" height="40" as="geometry" />
        </mxCell>
        <mxCell id="vBj10myBFWqMgLxk0U1Q-5" value="&lt;font style=&quot;font-size: 15px&quot;&gt;Internet Gateway&lt;br&gt;&lt;/font&gt;" style="text;html=1;strokeColor=none;fillColor=none;align=center;verticalAlign=middle;whiteSpace=wrap;rounded=0;" parent="1" vertex="1">
          <mxGeometry x="477" y="200" width="90" height="40" as="geometry" />
        </mxCell>
        <mxCell id="vBj10myBFWqMgLxk0U1Q-11" value="" style="endArrow=classic;startArrow=classic;html=1;entryX=0.014;entryY=0.763;entryDx=0;entryDy=0;entryPerimeter=0;" parent="1" target="vBj10myBFWqMgLxk0U1Q-3" edge="1">
          <mxGeometry width="50" height="50" relative="1" as="geometry">
            <mxPoint x="320" y="380" as="sourcePoint" />
            <mxPoint x="456" y="379.28999999999996" as="targetPoint" />
          </mxGeometry>
        </mxCell>
        <mxCell id="vBj10myBFWqMgLxk0U1Q-12" value="" style="endArrow=classic;startArrow=classic;html=1;" parent="1" edge="1">
          <mxGeometry width="50" height="50" relative="1" as="geometry">
            <mxPoint x="521.29" y="314" as="sourcePoint" />
            <mxPoint x="521" y="240" as="targetPoint" />
          </mxGeometry>
        </mxCell>
        <mxCell id="vBj10myBFWqMgLxk0U1Q-13" value="" style="endArrow=classic;startArrow=classic;html=1;" parent="1" edge="1">
          <mxGeometry width="50" height="50" relative="1" as="geometry">
            <mxPoint x="521.5799999999999" y="114" as="sourcePoint" />
            <mxPoint x="521" y="60" as="targetPoint" />
          </mxGeometry>
        </mxCell>
      </root>
    </mxGraphModel>
  </diagram>
  <diagram name="Page-1のコピー" id="EHNuONoTBxxnnHIJ_1By">
    <mxGraphModel dx="2115" dy="646" grid="1" gridSize="10" guides="1" tooltips="1" connect="1" arrows="1" fold="1" page="1" pageScale="1" pageWidth="1169" pageHeight="827" math="0" shadow="0">
      <root>
        <mxCell id="g4a0EZG_ta-R_dxbJ2DH-0" />
        <mxCell id="g4a0EZG_ta-R_dxbJ2DH-1" parent="g4a0EZG_ta-R_dxbJ2DH-0" />
        <mxCell id="g4a0EZG_ta-R_dxbJ2DH-2" value="&lt;font style=&quot;font-size: 15px&quot;&gt;AWS Cloud&lt;/font&gt;" style="points=[[0,0],[0.25,0],[0.5,0],[0.75,0],[1,0],[1,0.25],[1,0.5],[1,0.75],[1,1],[0.75,1],[0.5,1],[0.25,1],[0,1],[0,0.75],[0,0.5],[0,0.25]];outlineConnect=0;gradientColor=none;html=1;whiteSpace=wrap;fontSize=12;fontStyle=0;shape=mxgraph.aws4.group;grIcon=mxgraph.aws4.group_aws_cloud_alt;strokeColor=#232F3E;fillColor=none;verticalAlign=top;align=left;spacingLeft=30;fontColor=#232F3E;dashed=0;labelBackgroundColor=#ffffff;" parent="g4a0EZG_ta-R_dxbJ2DH-1" vertex="1">
          <mxGeometry x="-20" y="80" width="1210" height="760" as="geometry" />
        </mxCell>
        <mxCell id="g4a0EZG_ta-R_dxbJ2DH-3" value="&lt;font style=&quot;font-size: 15px&quot;&gt;Region(ap-northeast-1)&lt;/font&gt;" style="points=[[0,0],[0.25,0],[0.5,0],[0.75,0],[1,0],[1,0.25],[1,0.5],[1,0.75],[1,1],[0.75,1],[0.5,1],[0.25,1],[0,1],[0,0.75],[0,0.5],[0,0.25]];outlineConnect=0;gradientColor=none;html=1;whiteSpace=wrap;fontSize=12;fontStyle=0;shape=mxgraph.aws4.group;grIcon=mxgraph.aws4.group_region;strokeColor=#147EBA;fillColor=none;verticalAlign=top;align=left;spacingLeft=30;fontColor=#147EBA;dashed=0;" parent="g4a0EZG_ta-R_dxbJ2DH-1" vertex="1">
          <mxGeometry x="20" y="120" width="1130" height="690" as="geometry" />
        </mxCell>
        <mxCell id="g4a0EZG_ta-R_dxbJ2DH-4" value="" style="outlineConnect=0;fontColor=#232F3E;gradientColor=#60A337;gradientDirection=north;fillColor=#277116;strokeColor=#ffffff;dashed=0;verticalLabelPosition=bottom;verticalAlign=top;align=center;html=1;fontSize=12;fontStyle=0;aspect=fixed;shape=mxgraph.aws4.resourceIcon;resIcon=mxgraph.aws4.s3;" parent="g4a0EZG_ta-R_dxbJ2DH-1" vertex="1">
          <mxGeometry x="61" y="341" width="78" height="78" as="geometry" />
        </mxCell>
        <mxCell id="g4a0EZG_ta-R_dxbJ2DH-5" value="&lt;font style=&quot;font-size: 20px&quot;&gt;S3&lt;/font&gt;" style="text;html=1;strokeColor=none;fillColor=none;align=center;verticalAlign=middle;whiteSpace=wrap;rounded=0;" parent="g4a0EZG_ta-R_dxbJ2DH-1" vertex="1">
          <mxGeometry x="80" y="320" width="40" height="20" as="geometry" />
        </mxCell>
        <mxCell id="g4a0EZG_ta-R_dxbJ2DH-6" value="&lt;font style=&quot;font-size: 15px&quot;&gt;VPC(10.0.0.0/16)&lt;/font&gt;" style="points=[[0,0],[0.25,0],[0.5,0],[0.75,0],[1,0],[1,0.25],[1,0.5],[1,0.75],[1,1],[0.75,1],[0.5,1],[0.25,1],[0,1],[0,0.75],[0,0.5],[0,0.25]];outlineConnect=0;gradientColor=none;html=1;whiteSpace=wrap;fontSize=12;fontStyle=0;shape=mxgraph.aws4.group;grIcon=mxgraph.aws4.group_vpc;strokeColor=#248814;fillColor=none;verticalAlign=top;align=left;spacingLeft=30;fontColor=#AAB7B8;dashed=0;" parent="g4a0EZG_ta-R_dxbJ2DH-1" vertex="1">
          <mxGeometry x="160" y="158" width="940" height="622" as="geometry" />
        </mxCell>
        <mxCell id="g4a0EZG_ta-R_dxbJ2DH-7" value="&lt;font style=&quot;font-size: 15px&quot;&gt;Availability zone(1a)&lt;/font&gt;" style="outlineConnect=0;gradientColor=none;html=1;whiteSpace=wrap;fontSize=12;fontStyle=0;shape=mxgraph.aws4.group;grIcon=mxgraph.aws4.group_availability_zone;strokeColor=#545B64;fillColor=none;verticalAlign=top;align=left;spacingLeft=30;fontColor=#545B64;dashed=1;" parent="g4a0EZG_ta-R_dxbJ2DH-1" vertex="1">
          <mxGeometry x="227" y="190" width="350" height="570" as="geometry" />
        </mxCell>
        <mxCell id="g4a0EZG_ta-R_dxbJ2DH-8" value="&lt;font style=&quot;font-size: 15px&quot;&gt;Availability zone(1c)&lt;/font&gt;" style="outlineConnect=0;gradientColor=none;html=1;whiteSpace=wrap;fontSize=12;fontStyle=0;shape=mxgraph.aws4.group;grIcon=mxgraph.aws4.group_availability_zone;strokeColor=#545B64;fillColor=none;verticalAlign=top;align=left;spacingLeft=30;fontColor=#545B64;dashed=1;" parent="g4a0EZG_ta-R_dxbJ2DH-1" vertex="1">
          <mxGeometry x="707" y="190" width="353" height="570" as="geometry" />
        </mxCell>
        <mxCell id="g4a0EZG_ta-R_dxbJ2DH-9" value="&lt;font style=&quot;font-size: 15px&quot;&gt;Public subnet(10.0.0.0/24)&lt;/font&gt;" style="points=[[0,0],[0.25,0],[0.5,0],[0.75,0],[1,0],[1,0.25],[1,0.5],[1,0.75],[1,1],[0.75,1],[0.5,1],[0.25,1],[0,1],[0,0.75],[0,0.5],[0,0.25]];outlineConnect=0;gradientColor=none;html=1;whiteSpace=wrap;fontSize=12;fontStyle=0;shape=mxgraph.aws4.group;grIcon=mxgraph.aws4.group_security_group;grStroke=0;strokeColor=#248814;fillColor=#E9F3E6;verticalAlign=top;align=left;spacingLeft=30;fontColor=#248814;dashed=0;" parent="g4a0EZG_ta-R_dxbJ2DH-1" vertex="1">
          <mxGeometry x="242" y="240" width="320" height="240" as="geometry" />
        </mxCell>
        <mxCell id="g4a0EZG_ta-R_dxbJ2DH-10" value="&lt;font style=&quot;font-size: 15px&quot;&gt;Public subnet(10.0.3.0/24)&lt;/font&gt;" style="points=[[0,0],[0.25,0],[0.5,0],[0.75,0],[1,0],[1,0.25],[1,0.5],[1,0.75],[1,1],[0.75,1],[0.5,1],[0.25,1],[0,1],[0,0.75],[0,0.5],[0,0.25]];outlineConnect=0;gradientColor=none;html=1;whiteSpace=wrap;fontSize=12;fontStyle=0;shape=mxgraph.aws4.group;grIcon=mxgraph.aws4.group_security_group;grStroke=0;strokeColor=#248814;fillColor=#E9F3E6;verticalAlign=top;align=left;spacingLeft=30;fontColor=#248814;dashed=0;" parent="g4a0EZG_ta-R_dxbJ2DH-1" vertex="1">
          <mxGeometry x="727" y="240" width="320" height="240" as="geometry" />
        </mxCell>
        <mxCell id="g4a0EZG_ta-R_dxbJ2DH-11" value="&lt;font style=&quot;font-size: 15px&quot;&gt;EC2&lt;/font&gt;" style="outlineConnect=0;fontColor=#232F3E;gradientColor=none;strokeColor=#ffffff;fillColor=#232F3E;dashed=0;verticalLabelPosition=middle;verticalAlign=bottom;align=center;html=1;whiteSpace=wrap;fontSize=10;fontStyle=1;spacing=3;shape=mxgraph.aws4.productIcon;prIcon=mxgraph.aws4.ec2;" parent="g4a0EZG_ta-R_dxbJ2DH-1" vertex="1">
          <mxGeometry x="362" y="330" width="80" height="100" as="geometry" />
        </mxCell>
        <mxCell id="g4a0EZG_ta-R_dxbJ2DH-12" value="" style="rounded=1;arcSize=10;dashed=1;strokeColor=#ff0000;fillColor=none;gradientColor=none;dashPattern=8 4;strokeWidth=2;" parent="g4a0EZG_ta-R_dxbJ2DH-1" vertex="1">
          <mxGeometry x="257" y="270" width="760" height="200" as="geometry" />
        </mxCell>
        <mxCell id="g4a0EZG_ta-R_dxbJ2DH-13" value="&lt;span style=&quot;font-size: 15px&quot;&gt;&lt;font color=&quot;#ff0000&quot;&gt;Security Group(SSH/HTTP)&lt;/font&gt;&lt;/span&gt;" style="text;html=1;strokeColor=none;fillColor=none;align=center;verticalAlign=middle;whiteSpace=wrap;rounded=0;" parent="g4a0EZG_ta-R_dxbJ2DH-1" vertex="1">
          <mxGeometry x="270" y="280" width="200" height="20" as="geometry" />
        </mxCell>
        <mxCell id="g4a0EZG_ta-R_dxbJ2DH-14" value="&lt;font style=&quot;font-size: 15px&quot;&gt;EC2&lt;/font&gt;" style="outlineConnect=0;fontColor=#232F3E;gradientColor=none;strokeColor=#ffffff;fillColor=#232F3E;dashed=0;verticalLabelPosition=middle;verticalAlign=bottom;align=center;html=1;whiteSpace=wrap;fontSize=10;fontStyle=1;spacing=3;shape=mxgraph.aws4.productIcon;prIcon=mxgraph.aws4.ec2;" parent="g4a0EZG_ta-R_dxbJ2DH-1" vertex="1">
          <mxGeometry x="837" y="330" width="80" height="100" as="geometry" />
        </mxCell>
        <mxCell id="g4a0EZG_ta-R_dxbJ2DH-15" value="&lt;font style=&quot;font-size: 15px&quot;&gt;Private subnet(10.0.1.0/24)&lt;/font&gt;" style="points=[[0,0],[0.25,0],[0.5,0],[0.75,0],[1,0],[1,0.25],[1,0.5],[1,0.75],[1,1],[0.75,1],[0.5,1],[0.25,1],[0,1],[0,0.75],[0,0.5],[0,0.25]];outlineConnect=0;gradientColor=none;html=1;whiteSpace=wrap;fontSize=12;fontStyle=0;shape=mxgraph.aws4.group;grIcon=mxgraph.aws4.group_security_group;grStroke=0;strokeColor=#147EBA;fillColor=#E6F2F8;verticalAlign=top;align=left;spacingLeft=30;fontColor=#147EBA;dashed=0;" parent="g4a0EZG_ta-R_dxbJ2DH-1" vertex="1">
          <mxGeometry x="242" y="500" width="320" height="240" as="geometry" />
        </mxCell>
        <mxCell id="g4a0EZG_ta-R_dxbJ2DH-16" value="&lt;font style=&quot;font-size: 15px&quot;&gt;Private subnet(10.0.2.0/24)&lt;/font&gt;" style="points=[[0,0],[0.25,0],[0.5,0],[0.75,0],[1,0],[1,0.25],[1,0.5],[1,0.75],[1,1],[0.75,1],[0.5,1],[0.25,1],[0,1],[0,0.75],[0,0.5],[0,0.25]];outlineConnect=0;gradientColor=none;html=1;whiteSpace=wrap;fontSize=12;fontStyle=0;shape=mxgraph.aws4.group;grIcon=mxgraph.aws4.group_security_group;grStroke=0;strokeColor=#147EBA;fillColor=#E6F2F8;verticalAlign=top;align=left;spacingLeft=30;fontColor=#147EBA;dashed=0;" parent="g4a0EZG_ta-R_dxbJ2DH-1" vertex="1">
          <mxGeometry x="727" y="500" width="320" height="240" as="geometry" />
        </mxCell>
        <mxCell id="g4a0EZG_ta-R_dxbJ2DH-17" value="" style="rounded=1;arcSize=10;dashed=1;strokeColor=#ff0000;fillColor=none;gradientColor=none;dashPattern=8 4;strokeWidth=2;" parent="g4a0EZG_ta-R_dxbJ2DH-1" vertex="1">
          <mxGeometry x="257" y="530" width="760" height="200" as="geometry" />
        </mxCell>
        <mxCell id="g4a0EZG_ta-R_dxbJ2DH-18" value="&lt;span style=&quot;font-size: 15px&quot;&gt;&lt;font color=&quot;#ff0000&quot;&gt;Security Group(MYSQL/Aurora)&lt;/font&gt;&lt;/span&gt;" style="text;html=1;strokeColor=none;fillColor=none;align=center;verticalAlign=middle;whiteSpace=wrap;rounded=0;" parent="g4a0EZG_ta-R_dxbJ2DH-1" vertex="1">
          <mxGeometry x="270" y="540" width="230" height="20" as="geometry" />
        </mxCell>
        <mxCell id="g4a0EZG_ta-R_dxbJ2DH-19" value="" style="outlineConnect=0;fontColor=#232F3E;gradientColor=#4D72F3;gradientDirection=north;fillColor=#3334B9;strokeColor=#ffffff;dashed=0;verticalLabelPosition=bottom;verticalAlign=top;align=center;html=1;fontSize=12;fontStyle=0;aspect=fixed;shape=mxgraph.aws4.resourceIcon;resIcon=mxgraph.aws4.rds;" parent="g4a0EZG_ta-R_dxbJ2DH-1" vertex="1">
          <mxGeometry x="357" y="600" width="78" height="78" as="geometry" />
        </mxCell>
        <mxCell id="g4a0EZG_ta-R_dxbJ2DH-20" value="&lt;font style=&quot;font-size: 15px&quot;&gt;RDS(MySQL)&lt;br&gt;&lt;/font&gt;" style="text;html=1;strokeColor=none;fillColor=none;align=center;verticalAlign=middle;whiteSpace=wrap;rounded=0;" parent="g4a0EZG_ta-R_dxbJ2DH-1" vertex="1">
          <mxGeometry x="351" y="678" width="90" height="40" as="geometry" />
        </mxCell>
        <mxCell id="g4a0EZG_ta-R_dxbJ2DH-21" value="" style="endArrow=classic;html=1;" parent="g4a0EZG_ta-R_dxbJ2DH-1" source="g4a0EZG_ta-R_dxbJ2DH-25" edge="1">
          <mxGeometry width="50" height="50" relative="1" as="geometry">
            <mxPoint x="633" y="258" as="sourcePoint" />
            <mxPoint x="450" y="340" as="targetPoint" />
            <Array as="points" />
          </mxGeometry>
        </mxCell>
        <mxCell id="g4a0EZG_ta-R_dxbJ2DH-22" value="" style="endArrow=classic;html=1;" parent="g4a0EZG_ta-R_dxbJ2DH-1" source="g4a0EZG_ta-R_dxbJ2DH-25" edge="1">
          <mxGeometry width="50" height="50" relative="1" as="geometry">
            <mxPoint x="643" y="258" as="sourcePoint" />
            <mxPoint x="830" y="340" as="targetPoint" />
            <Array as="points" />
          </mxGeometry>
        </mxCell>
        <mxCell id="g4a0EZG_ta-R_dxbJ2DH-23" value="&lt;font style=&quot;font-size: 15px&quot;&gt;Internet&lt;/font&gt;" style="outlineConnect=0;fontColor=#232F3E;gradientColor=none;strokeColor=#232F3E;fillColor=#ffffff;dashed=0;verticalLabelPosition=bottom;verticalAlign=top;align=center;html=1;fontSize=12;fontStyle=0;aspect=fixed;shape=mxgraph.aws4.resourceIcon;resIcon=mxgraph.aws4.internet;" parent="g4a0EZG_ta-R_dxbJ2DH-1" vertex="1">
          <mxGeometry x="608" width="60" height="60" as="geometry" />
        </mxCell>
        <mxCell id="g4a0EZG_ta-R_dxbJ2DH-24" value="" style="outlineConnect=0;fontColor=#232F3E;gradientColor=none;fillColor=#5A30B5;strokeColor=none;dashed=0;verticalLabelPosition=bottom;verticalAlign=top;align=center;html=1;fontSize=12;fontStyle=0;aspect=fixed;pointerEvents=1;shape=mxgraph.aws4.internet_gateway;" parent="g4a0EZG_ta-R_dxbJ2DH-1" vertex="1">
          <mxGeometry x="600" y="100" width="78" height="78" as="geometry" />
        </mxCell>
        <mxCell id="g4a0EZG_ta-R_dxbJ2DH-25" value="Application Load Balancer" style="outlineConnect=0;fontColor=#232F3E;gradientColor=none;strokeColor=#ffffff;fillColor=#232F3E;dashed=0;verticalLabelPosition=middle;verticalAlign=bottom;align=center;html=1;whiteSpace=wrap;fontSize=10;fontStyle=1;spacing=3;shape=mxgraph.aws4.productIcon;prIcon=mxgraph.aws4.application_load_balancer;" parent="g4a0EZG_ta-R_dxbJ2DH-1" vertex="1">
          <mxGeometry x="598" y="190" width="80" height="110" as="geometry" />
        </mxCell>
        <mxCell id="g4a0EZG_ta-R_dxbJ2DH-26" value="" style="endArrow=classic;startArrow=classic;html=1;" parent="g4a0EZG_ta-R_dxbJ2DH-1" edge="1">
          <mxGeometry width="50" height="50" relative="1" as="geometry">
            <mxPoint x="150" y="379" as="sourcePoint" />
            <mxPoint x="340" y="379.29" as="targetPoint" />
            <Array as="points" />
          </mxGeometry>
        </mxCell>
      </root>
    </mxGraphModel>
  </diagram>
  <diagram id="dFjorp5fLwm0Gq1yxsmD" name="Page-3">
    <mxGraphModel dx="946" dy="646" grid="0" gridSize="10" guides="1" tooltips="1" connect="1" arrows="1" fold="1" page="1" pageScale="1" pageWidth="827" pageHeight="1169" math="0" shadow="0">
      <root>
        <mxCell id="vcsEQ6LboGAJfIdMvHo--0" />
        <mxCell id="vcsEQ6LboGAJfIdMvHo--1" parent="vcsEQ6LboGAJfIdMvHo--0" />
        <mxCell id="vcsEQ6LboGAJfIdMvHo--2" value="" style="outlineConnect=0;dashed=0;verticalLabelPosition=bottom;verticalAlign=top;align=center;html=1;shape=mxgraph.aws3.stack_aws_cloudformation;fillColor=#759C3E;gradientColor=none;" vertex="1" parent="vcsEQ6LboGAJfIdMvHo--1">
          <mxGeometry x="500" y="180" width="110" height="94.25" as="geometry" />
        </mxCell>
        <mxCell id="vcsEQ6LboGAJfIdMvHo--3" value="" style="shape=image;html=1;verticalAlign=top;verticalLabelPosition=bottom;labelBackgroundColor=#ffffff;imageAspect=0;aspect=fixed;image=https://cdn4.iconfinder.com/data/icons/logos-brands-5/24/jenkins-128.png" vertex="1" parent="vcsEQ6LboGAJfIdMvHo--1">
          <mxGeometry x="260" y="220" width="50" height="50" as="geometry" />
        </mxCell>
        <mxCell id="vcsEQ6LboGAJfIdMvHo--9" value="" style="edgeStyle=orthogonalEdgeStyle;rounded=0;orthogonalLoop=1;jettySize=auto;html=1;" edge="1" parent="vcsEQ6LboGAJfIdMvHo--1" source="vcsEQ6LboGAJfIdMvHo--5">
          <mxGeometry relative="1" as="geometry">
            <mxPoint x="490" y="230" as="targetPoint" />
          </mxGeometry>
        </mxCell>
        <mxCell id="vcsEQ6LboGAJfIdMvHo--5" value="EC2 instance contents" style="points=[[0,0],[0.25,0],[0.5,0],[0.75,0],[1,0],[1,0.25],[1,0.5],[1,0.75],[1,1],[0.75,1],[0.5,1],[0.25,1],[0,1],[0,0.75],[0,0.5],[0,0.25]];outlineConnect=0;gradientColor=none;html=1;whiteSpace=wrap;fontSize=12;fontStyle=0;shape=mxgraph.aws4.group;grIcon=mxgraph.aws4.group_ec2_instance_contents;strokeColor=#D86613;fillColor=none;verticalAlign=top;align=left;spacingLeft=30;fontColor=#D86613;dashed=0;" vertex="1" parent="vcsEQ6LboGAJfIdMvHo--1">
          <mxGeometry x="230" y="180" width="110" height="100" as="geometry" />
        </mxCell>
        <mxCell id="vcsEQ6LboGAJfIdMvHo--6" value="CloudFormation Stack" style="text;html=1;strokeColor=none;fillColor=none;align=center;verticalAlign=middle;whiteSpace=wrap;rounded=0;" vertex="1" parent="vcsEQ6LboGAJfIdMvHo--1">
          <mxGeometry x="480" y="278" width="150" height="20" as="geometry" />
        </mxCell>
        <mxCell id="vcsEQ6LboGAJfIdMvHo--11" style="edgeStyle=orthogonalEdgeStyle;rounded=0;orthogonalLoop=1;jettySize=auto;html=1;" edge="1" parent="vcsEQ6LboGAJfIdMvHo--1" source="vcsEQ6LboGAJfIdMvHo--10">
          <mxGeometry relative="1" as="geometry">
            <mxPoint x="220" y="229" as="targetPoint" />
          </mxGeometry>
        </mxCell>
        <mxCell id="vcsEQ6LboGAJfIdMvHo--10" value="" style="shape=mxgraph.signs.tech.computer;html=1;fillColor=#000000;strokeColor=none;verticalLabelPosition=bottom;verticalAlign=top;align=center;" vertex="1" parent="vcsEQ6LboGAJfIdMvHo--1">
          <mxGeometry x="10" y="180" width="98" height="98" as="geometry" />
        </mxCell>
        <mxCell id="vcsEQ6LboGAJfIdMvHo--16" style="edgeStyle=orthogonalEdgeStyle;rounded=0;orthogonalLoop=1;jettySize=auto;html=1;" edge="1" parent="vcsEQ6LboGAJfIdMvHo--1" source="vcsEQ6LboGAJfIdMvHo--15">
          <mxGeometry relative="1" as="geometry">
            <mxPoint x="280" y="170" as="targetPoint" />
          </mxGeometry>
        </mxCell>
        <mxCell id="vcsEQ6LboGAJfIdMvHo--15" value="" style="shape=image;html=1;verticalAlign=top;verticalLabelPosition=bottom;labelBackgroundColor=#ffffff;imageAspect=0;aspect=fixed;image=https://cdn0.iconfinder.com/data/icons/octicons/1024/mark-github-128.png" vertex="1" parent="vcsEQ6LboGAJfIdMvHo--1">
          <mxGeometry x="364" y="30" width="98" height="98" as="geometry" />
        </mxCell>
        <mxCell id="vcsEQ6LboGAJfIdMvHo--17" value="GitHub" style="text;html=1;strokeColor=none;fillColor=none;align=center;verticalAlign=middle;whiteSpace=wrap;rounded=0;" vertex="1" parent="vcsEQ6LboGAJfIdMvHo--1">
          <mxGeometry x="393" y="128" width="40" height="20" as="geometry" />
        </mxCell>
        <mxCell id="vcsEQ6LboGAJfIdMvHo--18" value="Jenkinsサーバー" style="text;html=1;strokeColor=none;fillColor=none;align=center;verticalAlign=middle;whiteSpace=wrap;rounded=0;" vertex="1" parent="vcsEQ6LboGAJfIdMvHo--1">
          <mxGeometry x="230" y="280" width="110" height="20" as="geometry" />
        </mxCell>
        <mxCell id="vcsEQ6LboGAJfIdMvHo--21" value="PC" style="text;html=1;align=center;verticalAlign=middle;resizable=0;points=[];autosize=1;" vertex="1" parent="vcsEQ6LboGAJfIdMvHo--1">
          <mxGeometry x="44" y="280" width="30" height="20" as="geometry" />
        </mxCell>
      </root>
    </mxGraphModel>
  </diagram>
</mxfile>
